<svg xmlns="http://www.w3.org/2000/svg" xmlns:xlink="http://www.w3.org/1999/xlink" viewBox="0 0 634.96 892.07"><defs><style>.cls-1{fill:url(#linear-gradient);}.cls-2{fill:#00e7ff;}.cls-3,.cls-4{fill:#fff;}.cls-10,.cls-3,.cls-4,.cls-5,.cls-6,.cls-7,.cls-8,.cls-9{stroke:#fff;stroke-miterlimit:10;}.cls-3{stroke-width:6px;}.cls-4{stroke-width:12px;}.cls-10,.cls-5,.cls-6,.cls-7,.cls-8,.cls-9{stroke-width:5px;}.cls-5{fill:url(#linear-gradient-2);}.cls-6{fill:url(#linear-gradient-3);}.cls-7{fill:url(#linear-gradient-4);}.cls-8{fill:url(#linear-gradient-5);}.cls-9{fill:url(#linear-gradient-6);}.cls-10{fill:url(#linear-gradient-7);}</style><linearGradient id="linear-gradient" x1="463.58" y1="353.89" x2="870.1" y2="822.23" gradientUnits="userSpaceOnUse"><stop offset="0" stop-color="#14e8d5"/><stop offset="1" stop-color="#597ee8"/></linearGradient><linearGradient id="linear-gradient-2" x1="741.96" y1="617.21" x2="506.48" y2="462.72" xlink:href="#linear-gradient"/><linearGradient id="linear-gradient-3" x1="754.46" y1="598.16" x2="518.97" y2="443.67" xlink:href="#linear-gradient"/><linearGradient id="linear-gradient-4" x1="767.89" y1="577.69" x2="532.4" y2="423.2" xlink:href="#linear-gradient"/><linearGradient id="linear-gradient-5" x1="782.87" y1="554.86" x2="547.38" y2="400.36" xlink:href="#linear-gradient"/><linearGradient id="linear-gradient-6" x1="568.89" y1="481.74" x2="568.89" y2="481.74" xlink:href="#linear-gradient"/><linearGradient id="linear-gradient-7" x1="422.72" y1="418.2" x2="187.23" y2="263.7" xlink:href="#linear-gradient"/></defs><title>Martial Search Logo</title><g id="Layer_1" data-name="Layer 1"><path class="cls-1" d="M955.32,511.74c0,174.14-315.32,571.85-315.32,571.85S324.68,685.88,324.68,511.74,465.86,196.42,640,196.42,955.32,337.59,955.32,511.74Z" transform="translate(-322.54 -193.98)"/><path class="cls-2" d="M957.51,511.74a211.47,211.47,0,0,1-4.81,41.35,368.8,368.8,0,0,1-10.93,40c-8.68,26.23-19.43,51.69-31.2,76.6q-8.82,18.7-18.37,37t-19.59,36.37c-13.41,24.05-27.44,47.75-41.9,71.17-28.95,46.83-59.55,92.61-91.21,137.62q-23.74,33.77-48.31,66.94c-16.38,22.11-33,44.06-50,65.71h0L640,1086l-1.19-1.52c-21.29-27.06-41.93-54.58-62.26-82.34S536.33,946.35,516.88,918c-38.86-56.79-76-114.81-109.59-175-16.74-30.09-32.57-60.72-46.55-92.24-7-15.76-13.48-31.75-19.21-48a383.38,383.38,0,0,1-14.24-49.83,230.49,230.49,0,0,1-4-25.71l-.51-6.5c-.11-2.17-.14-4.36-.21-6.53s0-4.34,0-6.51l.16-6.49c.07-2.16.07-4.33.2-6.49l.49-6.47c.36-4.31.54-8.64,1.18-12.93s1-8.6,1.68-12.88l2.27-12.79a329.13,329.13,0,0,1,14.24-49.9,305.2,305.2,0,0,1,22.24-46.89,323.51,323.51,0,0,1,29.5-42.7,329.32,329.32,0,0,1,36.14-37.25,317.32,317.32,0,0,1,87.8-54.76c64-26.57,136.86-31.48,203.82-13.34l12.5,3.57,12.31,4.17c2.07.65,4.07,1.49,6.08,2.28l6,2.39,3,1.19,1.51.6,1.48.67,5.92,2.68a316.55,316.55,0,0,1,45.39,25.23,329.17,329.17,0,0,1,40.6,32.36l4.7,4.48,2.35,2.24c.79.74,1.5,1.56,2.26,2.33l8.94,9.43,8.5,9.83c1.45,1.61,2.72,3.37,4.08,5.06l4,5.11A328.41,328.41,0,0,1,920.19,362l5.91,11.57c1.82,3.93,3.57,7.89,5.36,11.83.44,1,.9,2,1.32,3l1.19,3,2.38,6c.77,2,1.63,4,2.33,6.06l2.08,6.15,2.08,6.15.52,1.54.44,1.56.88,3.12,1.77,6.25c.58,2.09,1.22,4.16,1.66,6.28L951,447.24c.81,4.25,1.53,8.52,2.3,12.78A340.53,340.53,0,0,1,957.51,511.74Zm-4.38,0a336.12,336.12,0,0,0-4.25-51c-.77-4.2-1.48-8.41-2.29-12.6l-2.89-12.47c-.44-2.09-1.07-4.13-1.65-6.18l-1.75-6.16-.88-3.08-.44-1.54-.51-1.52-2.06-6.06-2.06-6.06c-.69-2-1.54-4-2.31-6l-2.35-6-1.18-3c-.41-1-.87-1.95-1.31-2.92-1.77-3.88-3.5-7.78-5.31-11.65l-5.85-11.39a323.68,323.68,0,0,0-27.81-42.91l-4-5c-1.34-1.66-2.59-3.39-4-5l-8.39-9.67L863,292.38c-.75-.76-1.45-1.56-2.23-2.29l-2.32-2.21-4.63-4.41a324.28,324.28,0,0,0-40-31.84,311.64,311.64,0,0,0-44.7-24.81l-5.83-2.63-1.46-.66-1.49-.59-3-1.17-6-2.35c-2-.77-4-1.6-6-2.24l-12.12-4.1-12.3-3.51A312.41,312.41,0,0,0,433.8,276.39a324.68,324.68,0,0,0-35.67,36.66,318.93,318.93,0,0,0-29.13,42,300.7,300.7,0,0,0-22,46.19,324.71,324.71,0,0,0-14.1,49.18l-2.26,12.61c-.64,4.22-1.11,8.46-1.67,12.7s-.82,8.5-1.18,12.75l-.49,6.39c-.13,2.13-.13,4.27-.2,6.4l-.17,6.4c-.05,2.13-.15,4.27,0,6.39s.09,4.24.19,6.36l.49,6.35A226.26,226.26,0,0,0,331.45,552a379.24,379.24,0,0,0,14,49.31c5.67,16.16,12.11,32.07,19,47.76,13.87,31.38,29.6,61.94,46.26,92s34.32,59.52,52.59,88.63,37.14,57.83,56.49,86.24,39.17,56.49,59.39,84.29,40.81,55.35,62,82.4h-2.39c16.94-21.62,33.48-43.6,49.8-65.72s32.36-44.45,48.13-67c31.54-45,62-90.82,90.82-137.63,14.39-23.41,28.35-47.09,41.68-71.11q10-18,19.46-36.31T906.91,668c11.67-24.83,22.3-50.18,30.86-76.19a364.61,364.61,0,0,0,10.73-39.56A207.26,207.26,0,0,0,953.13,511.74Z" transform="translate(-322.54 -193.98)"/></g><g id="Layer_3" data-name="Layer 3"><rect class="cls-3" x="292.89" y="532.26" width="50.43" height="138.99" rx="12" ry="12"/><line class="cls-4" x1="317.46" y1="473.6" x2="317.46" y2="536.56"/><circle class="cls-4" cx="317.46" cy="321.78" r="151.83"/></g><g id="Layer_2" data-name="Layer 2"><path class="cls-5" d="M558.75,544.69h0a22.3,22.3,0,0,1-22.24-22.24v-34a22.3,22.3,0,0,1,22.24-22.24h0L587,463.59l-2.13,25.83c-1,11.77.22,19.42-1.31,32.54-1.87,16-4.45,19.27-6.87,21.09C570.72,547.59,562.22,545.68,558.75,544.69Z" transform="translate(-322.54 -193.98)"/><path class="cls-6" d="M608.45,553.85h0a22.3,22.3,0,0,1-22.24-22.24V485.83A19.91,19.91,0,0,1,590,465.06c5.89-6.22,14-5.95,15.21-5.89l9.32-1c2.6.32,6.53.9,11.28,2,3.6.81,5.42,1.22,6.38,2,5.59,4.32-.28,20.51-1.47,23.71v45.78A22.3,22.3,0,0,1,608.45,553.85Z" transform="translate(-322.54 -193.98)"/><path class="cls-7" d="M659.47,564.31h0a22.3,22.3,0,0,1-22.24-22.24l-4.09-57.39a18.32,18.32,0,0,1,26.32-24.36l14.88-2.13c.86-.07,7.58-.54,11.28,3.92,4.09,4.92,3.18,14.24-3.92,20.44v59.51A22.3,22.3,0,0,1,659.47,564.31Z" transform="translate(-322.54 -193.98)"/><path class="cls-8" d="M710.48,553.85h0a22.3,22.3,0,0,1-22.24-22.24l-1.63-45.94a17.89,17.89,0,0,1,23.87-22.07h0c22.56.65,22.24,10,22.24,22.24v45.78A22.3,22.3,0,0,1,710.48,553.85Z" transform="translate(-322.54 -193.98)"/><path class="cls-9" d="M568.89,481.74" transform="translate(-322.54 -193.98)"/><rect class="cls-10" x="295.39" y="351.04" width="118.7" height="45.13" rx="11.5" ry="11.5"/></g></svg>